<svg xmlns="http://www.w3.org/2000/svg" viewBox="0 0 1400 800"><defs><linearGradient id="g" x1="0" x2="1"><stop stop-color="#0f1f4a"/><stop offset="1" stop-color="#0ea5b7"/></linearGradient></defs><rect width="1400" height="800" fill="url(#g)"/><g opacity=".22" fill="none" stroke="#fff" stroke-width="2"><path d="M0 520c180-80 260-40 410-120s260-160 480-90 310 30 510-100"/><path d="M0 610c230-120 380-30 560-130s330-190 610-90"/></g><g opacity=".24"><rect x="130" y="470" width="360" height="120" rx="16" fill="#ffcc00"/><rect x="160" y="430" width="280" height="70" rx="12" fill="#fff"/><rect x="840" y="390" width="330" height="185" rx="20" fill="#ffffff"/><rect x="880" y="430" width="250" height="40" rx="8" fill="#ffcc00"/><circle cx="215" cy="615" r="30" fill="#fff"/><circle cx="405" cy="615" r="30" fill="#fff"/><circle cx="925" cy="600" r="32" fill="#fff"/><circle cx="1110" cy="600" r="32" fill="#fff"/></g><g fill="#fff" opacity=".14"><circle cx="1120" cy="150" r="95"/><circle cx="1010" cy="210" r="45"/><circle cx="1220" cy="230" r="65"/></g></svg>
