<svg xmlns="http://www.w3.org/2000/svg" viewBox="0 0 900 620"><rect width="900" height="620" fill="#f8fafc"/><rect x="60" y="160" width="780" height="380" rx="28" fill="#1d2b57"/><path d="M80 170 450 60l370 110" fill="#111c44"/><g fill="#ffcc00"><rect x="135" y="245" width="150" height="110" rx="14"/><rect x="315" y="245" width="150" height="110" rx="14"/><rect x="495" y="245" width="150" height="110" rx="14"/><rect x="225" y="385" width="150" height="110" rx="14"/><rect x="405" y="385" width="150" height="110" rx="14"/></g><g fill="#fff" opacity=".8"><rect x="160" y="272" width="80" height="12" rx="6"/><rect x="340" y="272" width="80" height="12" rx="6"/><rect x="520" y="272" width="80" height="12" rx="6"/><rect x="250" y="412" width="80" height="12" rx="6"/><rect x="430" y="412" width="80" height="12" rx="6"/></g><rect x="615" y="380" width="170" height="70" rx="14" fill="#00a8c8"/><circle cx="655" cy="468" r="22" fill="#fff"/><circle cx="750" cy="468" r="22" fill="#fff"/></svg>
